# xmcd CD database file
#
# Track frame offsets:
#	150
#	9811
#	46272
#	68063
#	95699
#	110722
#	137521
#	155083
#	226747
#	270589
#	291729
#	303376
#
# Disc length: 4347 seconds
#
# Revision: 0
# Processed by: cddbd v1.5.2PL0 Copyright (c) Steve Scherf et al.
# Submitted via: CDex 1.79
#
DISCID=a310f90c
DTITLE=Soko - Two
DYEAR=2005
DGENRE=Jazz
TTITLE0=Storyteller
TTITLE1=Plant the Sky
TTITLE2=Speak Up
TTITLE3=Dark Beam of the Seine
TTITLE4=On the Matter of Coping
TTITLE5=Antidote
TTITLE6=In-Between, I
TTITLE7=Joy of Love
TTITLE8=Rain
TTITLE9=Bamboo Cool
TTITLE10=Stella: Reflections
TTITLE11=In-Between, II
EXTD=YEAR: 2005
EXTT0=
EXTT1=
EXTT2=
EXTT3=
EXTT4=
EXTT5=
EXTT6=
EXTT7=
EXTT8=
EXTT9=
EXTT10=
EXTT11=
PLAYORDER=
